<svg xmlns="http://www.w3.org/2000/svg" width="700" height="700" viewBox="0 0 700 700">
  <g transform="translate(100, 100) scale(1.4)">
    <path d="M197.378 72.945c1.243.078 3.176.077 4.296-.001 1.121-.079.103-.143-2.26-.142s-3.28.066-2.036.143m.962 13.659a5.6 5.6 0 0 0 1.758 0c.483-.093.088-.169-.879-.169s-1.363.076-.879.169m-7.227.384c.376.098.991.098 1.367 0s.069-.179-.683-.179-1.06.081-.684.179m15.625.439-1.269.122v54.639h13.156l.244-10.645c.135-5.855.135-15.698.001-21.875l-.245-11.23h2.359c1.635 0 2.509-.183 2.851-.595a1.18 1.18 0 0 1 1.249-.355c.415.131 1.285.019 1.934-.249.977-.405 1.238-.394 1.522.062.28.45.487.461 1.13.062 1.094-.678 1.488-.613 1.775.293.433 1.363.979.844.925-.879l-.051-1.66-.288 1.367-.288 1.368-.051-1.27c-.044-1.08-.197-1.269-1.028-1.269-.608 0-.976-.222-.976-.586 0-.323-.176-.586-.391-.586s-.391.263-.391.586-.176.586-.39.586-.391-.352-.391-.782c0-.654-.26-.781-1.608-.781-1.509 0-1.596-.061-1.42-.986.104-.542.034-1.082-.156-1.199a.42.42 0 0 1-.12-.576c.326-.526-.363-.447-.915.105-.364.364-.468.333-.468-.141 0-.439-.273-.558-.972-.425-.658.126-1.05-.018-1.214-.444-.133-.347-.393-.631-.578-.631-.186 0-.247.235-.137.521.112.291-.058.521-.386.521-.322 0-.495-.147-.384-.326s-.029-.328-.31-.331c-.374-.005-.354-.113.074-.403.429-.29.283-.326-.546-.132-.804.187-1.052.134-.856-.184.164-.265.02-.447-.356-.447-.347 0-.533.159-.413.354s-.131.263-.558.151-.683-.356-.567-.544c.115-.187-.353-.227-1.042-.09-.897.18-1.173.123-.973-.201.154-.248.093-.451-.134-.451-.228 0-.414.151-.414.337 0 .185-.396.296-.879.245-1.289-.135-1.325-.167-.684-.594.41-.272.068-.312-1.134-.13-1.246.189-1.644.137-1.443-.187.182-.295-.031-.415-.624-.352-.495.052-1.471.15-2.17.217m-49.099 11.097c-.334.478-.61.698-.614.489-.003-.209-.172-.117-.376.206-.204.322-.545.586-.759.586s-.672.351-1.019.781c-.348.43-.499.527-.337.216.172-.331-.22-.198-.948.32-1.124.8-1.796 1.61-.852 1.026.215-.132.391-.075.391.127 0 .203-.352.46-.782.573-.491.128-.686.05-.525-.21.153-.249.069-.3-.211-.126-.264.162-.359.629-.219 1.07.216.679.147.728-.521.37-.82-.439-2.039.452-2.039 1.492 0 .277-.253.402-.571.28-.332-.127-.889.183-1.326.739-.415.527-.919.959-1.12.959-.717 0-6.031 5.831-5.741 6.299.169.275.118.359-.127.208-.226-.14-.97.404-1.652 1.209-.683.805-1.843 2.165-2.579 3.022-.735.857-1.337 1.683-1.337 1.835 0 .153-.439.751-.977 1.331-.537.58-.976 1.292-.976 1.583s-.17.529-.377.529-.576.372-.82.828c-.358.668-.341.775.084.552.29-.152.087.106-.45.573s-.713.715-.39.552.095.204-.504.816-.997 1.355-.883 1.65c.113.296.045.438-.152.317-.345-.213-1.041 1.239-.882 1.84.042.162-.109.293-.337.293-.227 0-.305.176-.172.391s.011.393-.27.397c-.371.004-.351.109.075.384.5.324.486.38-.098.385-.614.005-.862.439-.73 1.275.026.162-.14.293-.367.293-.228 0-.305.176-.172.391.132.215.06.391-.16.391-.221 0-.29.292-.152.65.156.407.094.554-.167.393-.469-.29-1.01.788-.672 1.336.121.195.053.355-.152.355-.204 0-.476.273-.604.606-.132.344-.068.504.149.371.216-.134.281.026.149.37-.128.333-.384.606-.569.606-.186 0-.236.264-.112.586s.036.586-.195.586c-.232 0-.319.264-.196.586.124.322.054.586-.156.586-.477 0-1.784 4.554-1.458 5.081.131.213.061.388-.156.388s-.328.527-.247 1.172c.083.653-.033 1.171-.263 1.171-.244 0-.319.456-.185 1.126.123.619.131 1.22.016 1.335-.339.339-.399 29.961-.061 29.961.169 0 .345-1.977.39-4.394l.081-4.395.133 3.906c.085 2.494-.065 4.684-.414 6.055-.428 1.682-.569 6.644-.647 22.857l-.1 20.707 6.466-.095 6.466-.096.031 11.961c.017 6.579.146 12.146.286 12.372.14.227.214 1.185.165 2.131-.053 1.026.063 1.624.288 1.485.226-.14.317.354.227 1.234-.241 2.343.318 4.222 1.218 4.095.698-.099.704-.075.073.312-.856.525-.901 1.221-.059.898.548-.21.56-.136.098.61-.427.688-.432.909-.026 1.162.301.187.392.6.227 1.029-.177.462-.127.625.141.459.229-.141.513-.006.631.301.117.308.004.644-.252.749-.355.144-.353.197.009.22.28.018.373.299.227.681-.157.408-.094.554.166.393.229-.142.521.015.648.347.133.346.067.502-.154.365-.212-.131-.386-.052-.386.175 0 .228.186.414.413.414.228 0 .315.16.194.355-.338.548.203 1.626.672 1.336.263-.163.322-.011.159.413-.142.371-.097.571.102.449a.43.43 0 0 1 .588.148.444.444 0 0 1-.152.605c-.209.129-.281.491-.16.806.12.314.406.455.635.314.26-.161.323-.016.168.39-.155.401.08.966.617 1.488.476.463.602.715.279.56-.367-.176-.333-.074.092.274.373.306.563.671.423.811-.14.139-.039.254.225.254.263 0 .381.157.262.35s.058.454.393.583c.334.128.499.41.365.627-.228.368.326.572 1.139.417.197-.037.149.185-.108.494-.369.445-.342.611.133.793.329.126.554.398.498.604s.25.663.68 1.016.518.529.195.389c-.383-.165-.349-.059.098.307.376.309.684.748.684.977s.307.476.682.548.684.423.684.778c.001.752 5.021 6.046 6.251 6.592.215.095.353.284.308.42-.045.135.304.575.775.976.843.719.848.718.332-.051-.289-.429.033-.166.715.586s1.404 1.323 1.605 1.27c.202-.054.366.072.366.281 0 .479 5.834 4.436 6.632 4.498.704.055 2.335.952 1.767.972-.215.008.309.438 1.165.956.855.518 1.69.858 1.855.756s.3.02.3.27c0 .251.272.351.606.223.396-.152.509-.076.327.22q-.28.453.37.203c.362-.139.65-.06.65.177 0 .278.207.255.595-.068.494-.41.555-.391.362.113-.256.666 1.05 1.294 2.308 1.11.4-.059.621.065.491.275-.311.504.758.896 1.582.58q.654-.253.367.207c-.259.42.505.668 1.486.483.195-.037.489.151.654.417.235.381.432.373.924-.035.344-.286.738-.406.876-.268s.046.251-.205.251c-.25 0-.455.187-.455.417 0 .239.333.311.781.169.454-.144.781-.071.781.176 0 .264.391.326 1.035.165q1.032-.259.778.156c-.505.817 2.172 1.04 2.789.232.527-.69.543-.682.296.147-.217.728-.108.881.643.9 2.689.067 3.834.207 3.834.47 0 .161.439.293.977.293 1.005 0 1.561-3.89.637-4.461-.187-.115-.458-.96-.602-1.878s-.474-2.152-.732-2.743l-.471-1.074h-4.592c-4.332 0-4.592-.045-4.592-.782 0-.434-.26-.781-.586-.781-.5 0-.586-1.062-.586-7.217v-7.216l5.957-.146c3.277-.08 1.382-.074-4.21.013-6.392.101-10.558.011-11.219-.241-1.198-.455-3.163-2.298-3.345-3.136-.067-.309-.418-.786-.781-1.062-.414-.315-.478-.506-.171-.514.268-.007.488-.188.488-.403s-.196-.347-.436-.293c-.258.058-.475-.588-.531-1.583-.075-1.345.021-1.636.483-1.459.44.169.533-.011.389-.761-.103-.54-.036-.982.149-.982s.331-.308.324-.684c-.011-.633-.052-.631-.559.038-.301.397-.445 1.012-.321 1.368.182.518.125.551-.289.168-.787-.729.159-2.607 1.178-2.34.435.114.969-.076 1.259-.446.448-.574.429-.586-.181-.107-.376.295-.684.383-.685.195 0-.252-15.519-.646-21.483-.546-.517.009-.574-3.326-.483-28.115l.102-28.125h-12.918l.107-7.324.106-7.324 7.812.122 7.813.122-1.367-1.307c-.752-.719-1.419-1.43-1.482-1.58-1.012-2.405-1.253-3.063-1.253-3.422 0-.235-.132-.345-.293-.245s-.232-1.467-.159-3.482l.135-3.663-5.603-.108-5.603-.109-.102-29.199-.101-29.199h12.944l-.075-6.934-.074-6.934 6.277-.107 6.276-.107v-7.019c0-3.86.11-7.195.243-7.412.481-.778-.162-.375-.757.474m128.944 5.285c-.1.161 1.867.247 4.371.19 8.402-.188 9.292-.332 2.526-.408-3.693-.042-6.797.056-6.897.218m13.568 8.3c0 2.686.062 3.785.138 2.442s.076-3.54 0-4.883-.138-.244-.138 2.441m-60.307 1.563-7.617.195-.196 6.68-.195 6.68 1.562-.085c1.086-.059 1.175-.034.293.082l-1.269.167v14.797h14.844v14.062h-14.844v14.44l-10.254.115c-5.64.063-2.168.096 7.715.072 9.883-.023 19.638-.074 21.68-.112s8.94.046 15.332.187l11.621.255-.006-7.381c-.007-8.806.341-8.17-4.487-8.176-4.139-.006-10.298-.818-6.933-.915 1.384-.04 1.66-.178 1.66-.829s.26-.781 1.563-.781h1.562V150c0-2.865.065-3.125.781-3.125.651 0 .782.26.782 1.563V150h3.125v2.317c0 2.091-.086 2.333-.879 2.485-.484.094-.142.194.76.223l1.639.053-.077-5.957-.076-5.957-4.297-.208c-2.363-.115-5.176-.119-6.25-.009l-1.953.199 1.758.243 1.757.244-1.901.058c-1.822.057-1.893.019-1.716-.906.101-.53.034-.872-.15-.758s-.334-3.056-.334-7.043v-7.25h-17.171l-.106-7.129-.106-7.128zm-7.146 12.202c-.093.486-.173.181-.178-.679-.004-.859.072-1.257.17-.883s.102 1.076.008 1.562m47.087 16.203a8.7 8.7 0 0 0 2.149 0c.59-.09.107-.163-1.075-.163s-1.665.073-1.074.163m-14.98 8.086c.051 8.23-.192 7.637-.468-1.14-.124-3.926-.078-6.6.104-6.054.179.537.342 3.774.364 7.194m7.07-4.85v1.562h-1.562c-1.526 0-2.351-1.816-1.303-2.865 1.049-1.048 2.865-.223 2.865 1.303m-4.663 3.125h1.538v3.906h-1.534c-1.132 0-1.58.179-1.712.683-.099.376-.171-1.074-.162-3.222.01-2.149.088-3.335.175-2.637.148 1.191.253 1.27 1.695 1.27m-170.191 4.101c.001 2.363.065 3.28.143 2.037.078-1.244.077-3.177-.002-4.297-.078-1.12-.142-.103-.141 2.26m150.918.677c-.087.702-.16.222-.162-1.068-.002-1.289.069-1.863.158-1.276s.091 1.642.004 2.344m2.061 2.982c0 .536-1.89.78-2.086.269-.101-.263.294-.483.957-.534.621-.047 1.129.072 1.129.265m-1.677 6.395c-.093.486-.173.18-.178-.679-.004-.859.072-1.257.17-.883s.102 1.076.008 1.562m-126.939 7.231c-.073 1.665-.133.303-.133-3.027s.06-4.693.133-3.027a84 84 0 0 1 0 6.054m126.542-2.344c-.099.376-.179.069-.179-.683s.08-1.06.179-.684.098.991 0 1.367m62.364 9.668c.002 1.719.07 2.374.153 1.455s.081-2.325-.003-3.125-.151-.048-.15 1.67m-138.303 7.907c1.243.077 3.177.077 4.297-.002s.103-.142-2.261-.141c-2.363.001-3.279.065-2.036.143m47.544 21.195v21.094h27.735v-26.65l-1.465.337c-9.385 2.155-16.103-2.685-16.748-12.066l-.262-3.809h-9.26zm-41.247-9.375c0 3.545.059 4.995.132 3.223a96 96 0 0 0 0-6.446c-.073-1.772-.132-.322-.132 3.223m-57.098 12.793c-.088 9.185-.232 16.772-.321 16.862s-.162-7.425-.162-16.699.145-16.862.321-16.862.25 7.514.162 16.699M315 199.805c.001 3.222.061 4.489.134 2.814s.073-4.312-.001-5.86c-.074-1.547-.134-.177-.133 3.046m-158.848 1.643a5.6 5.6 0 0 0 1.758 0c.484-.094.088-.17-.879-.17s-1.362.076-.879.17m-34.388 9.392c-.089.591-.163.107-.163-1.074s.074-1.665.163-1.075.09 1.558 0 2.149m-24.889 18.611c0 .085.688.22 1.53.3.841.081 1.446.011 1.344-.154-.186-.3-2.874-.437-2.874-.146m203.711.108c4.71.283 9.874.3 9.706.031-.1-.161-2.764-.261-5.921-.221-3.156.04-4.859.125-3.785.19m-166.708 6.671c-.084.806-.153.147-.153-1.464 0-1.612.069-2.271.153-1.465.085.805.085 2.124 0 2.929m44.346-2.05c.004.859.084 1.165.177.679.094-.486.09-1.189-.008-1.563-.097-.373-.174.024-.169.884m-61.245 7.506 2.139.149.127 4.864.127 4.865-.018-4.981-.018-4.981-2.248-.033-2.248-.032zm162.014 5.677.086 5.957.119-5.746.12-5.747 3.407-.13 3.408-.13-3.613-.08-3.614-.081zm7.466 6.934c0 1.611.069 2.27.154 1.465.084-.806.084-2.124 0-2.93-.085-.806-.154-.146-.154 1.465m-.01 6.445c.002 1.289.075 1.77.162 1.067.087-.702.085-1.756-.004-2.343s-.16-.013-.158 1.276m-179.711 3.214c.806.085 2.124.085 2.93 0 .806-.084.146-.153-1.465-.153s-2.27.069-1.465.153m58.887 6.919c0 .787-.763 1.175-1.284.653-.319-.319-.232-.449.327-.49.419-.03.059-.181-.801-.335l-1.562-.28 1.66-.055c1.211-.04 1.66.097 1.66.507m-14.168 17.386c-.044.572-.182.659-.558.347-.275-.229-.403-.571-.286-.762.384-.62.902-.365.844.415m104.583 11.837-1.938 2.05 2.05-1.938c1.128-1.066 2.051-1.989 2.051-2.051 0-.291-.362.033-2.163 1.939m-61.411 8.765c.376.098.991.098 1.367 0s.068-.179-.683-.179-1.06.081-.684.179m3.32.013c.698.087 1.841.087 2.539 0 .699-.086.127-.157-1.269-.157-1.397 0-1.968.071-1.27.157" fill="#7eb4bd"/>
    <path d="M190.283 87.154c-8.628 1.001-17.356 3.578-25.635 7.567-7.202 3.47-6.495 2.31-6.495 10.654v7.106l-6.276.107-6.277.107.074 6.934.075 6.934h-12.943l.101 22.167.101 22.168 25.976.082c29.268.091 27.988.002 30.272 2.107 3.123 2.879 2.932.763 2.932 32.356 0 24.589.077 28.361.606 29.628 2.407 5.761 9.16 6.487 11.796 1.269l.879-1.74v-28.7c0-37.815-1.275-35.197 17.135-35.197h9.818V156.25h14.844v-14.062h-14.844v-7.422c0-4.082-.132-7.422-.293-7.422-.161.001-.183-3.383-.048-7.519.369-11.331.38-21.387.023-21.387-.175 0-.244-1.028-.153-2.285l.166-2.284-1.631-.653c-.897-.359-1.795-.551-1.996-.427s-.365.057-.365-.15c0-.206-.483-.55-1.074-.764a70 70 0 0 1-1.822-.69c-.586-.237-.673-.182-.403.253.19.305.294.95.232 1.433-.102.786.054.879 1.477.879 1.33 0 1.59.128 1.59.781 0 .43.176.782.391.782.214 0 .39-.264.39-.586 0-.323.176-.586.391-.586s.391.263.391.586c0 .364.368.586.976.586.843 0 .976.174.971 1.269-.005.925-.104 1.115-.366.702-.31-.492-.498-.494-1.386-.018-.865.463-1.08.465-1.357.017-.27-.437-.54-.445-1.508-.044-.649.268-1.519.38-1.934.249-.451-.143-.954 0-1.249.355-.342.412-1.216.595-2.851.595h-2.359l.245 11.23c.134 6.177.134 16.02-.001 21.875l-.244 10.645h-13.156V87.5l1.269-.045c1.238-.044 1.231-.053-.293-.368-1.996-.413-12.397-.369-16.162.067m21.616 1.102c.268.435 1.773.385 1.773-.058 0-.169-.45-.307-1-.307s-.898.164-.773.365m6.951 1.261c.592.217.995.525.896.686-.099.16.076.292.388.292.313 0 .569-.151.569-.335 0-.368-1.729-1.116-2.467-1.067-.254.017.022.208.614.424m81.249 16.538c.004.859.084 1.165.177.679.094-.486.09-1.189-.008-1.563-.097-.373-.174.024-.169.884m-52.443 14.453v7.226h17.188v-14.453h-17.188zm17.578 22.461c0 .68.241.773 1.856.722l1.855-.058-1.757-.244-1.758-.243 1.953-.199c1.074-.11 3.887-.106 6.25.009l4.297.208.076 5.957.077 5.957-1.639-.053c-.902-.029-1.244-.129-.76-.223.793-.152.879-.394.879-2.485V150h-3.125v-1.562c0-1.303-.131-1.563-.782-1.563-.653 0-.781-.26-.781-1.586v-1.586l-1.465.121c-1.385.115-1.471.201-1.586 1.586l-.121 1.465h3.172v6.25h-1.562c-1.303 0-1.563.13-1.563.781s-.276.789-1.66.829c-3.365.097 2.794.909 6.933.915 2.179.003 4.034.18 4.194.4.158.217.289-2.813.293-6.734l.006-7.128h-6.641c-6.38 0-6.641.03-6.641.781m.108 6.836c-.009 2.148.063 3.598.162 3.222.132-.504.58-.683 1.712-.683h1.534v-3.906h-1.538c-1.442 0-1.547-.079-1.695-1.27-.087-.698-.165.488-.175 2.637m-144.861 15.82c0 5.264.056 7.417.123 4.785.068-2.632.068-6.938 0-9.57-.067-2.632-.123-.479-.123 4.785m.77 1.172c0 3.33.06 4.692.133 3.027a84 84 0 0 0 0-6.054c-.073-1.666-.133-.303-.133 3.027m-.075 10.84c-.049 2.614-.24 4.394-.473 4.394-.215 0-.378.659-.363 1.465l.027 1.465.572-1.862c.391-1.27.532-3.13.446-5.859l-.126-3.998zm184.577 3.504c.693.087 1.924.088 2.734.003.811-.084.243-.155-1.26-.156s-2.167.067-1.474.153m-136.222 7.649c0 9.682-9.616 15.596-18.413 11.326-2.484-1.206-2.489-1.207-10.298-1.345l-7.812-.138-.106 7.324-.107 7.324h12.918l-.102 28.125c-.091 24.789-.034 28.124.483 28.115 5.413-.091 21.483.282 21.483.499.001.161-.266.293-.593.293-.853 0-1.634 1.834-1.036 2.432.351.35.469.325.503-.108.107-1.345.168-1.53.471-1.441.176.051.493-.216.705-.593 1.204-2.152 2.046-2.244 20.639-2.244h17.203v-14.131l-1.66.328c-10.117 1.994-20.183-4.276-24.558-15.298l-.931-2.344-.111-25.879-.111-25.879h-8.567zm-48.971 2.616c.077 2.686.141 11.724.142 20.085 0 8.361.074 15.128.163 15.039.306-.309.48-33.561.174-33.561-.168 0-.376-1.45-.462-3.223s-.093-1.025-.017 1.66m1.041 18.36c0 1.181.074 1.665.163 1.074s.09-1.558 0-2.149c-.089-.59-.163-.107-.163 1.075m3.301 17.086c1.343.076 3.54.076 4.883 0 1.343-.077.244-.139-2.441-.139-2.686 0-3.784.062-2.442.139m-34.364 2.731c.918.083 2.325.082 3.125-.002s.048-.152-1.671-.15c-1.719.001-2.373.07-1.454.152m43.187 5.183c0 1.611.069 2.27.153 1.464.085-.805.085-2.124 0-2.929-.084-.806-.153-.147-.153 1.465m-33.971 2.343c0 2.256.064 3.179.143 2.051a36 36 0 0 0 0-4.101c-.079-1.128-.143-.205-.143 2.05m-1.161 19.922c0 3.115.06 4.39.135 2.832a72 72 0 0 0 0-5.664c-.075-1.557-.135-.283-.135 2.832m201.564.391c0 3.33.06 4.692.133 3.027a83 83 0 0 0 0-6.054c-.073-1.666-.133-.303-.133 3.027m-197.716 6.53a8.7 8.7 0 0 0 2.149 0c.591-.09.107-.163-1.074-.163s-1.665.073-1.075.163m35.67 6.361c.142.537.402 1.131.578 1.32.478.515.221-.618-.344-1.516-.458-.728-.474-.715-.234.196m25.756.39c.86.154 1.22.305.801.335-.559.041-.646.171-.327.49.521.522 1.284.134 1.284-.653 0-.41-.449-.547-1.66-.507l-1.66.055zm1.945 4.298c.106 2.228.594 2.441.594.259 0-1.002-.15-1.822-.334-1.822s-.3.703-.26 1.563m14.266 14.647c0 6.164.086 7.227.586 7.227.326 0 .586.347.586.781 0 .737.26.782 4.592.782h4.592l.471 1.074c.258.591.588 1.825.732 2.743s.415 1.763.602 1.878c.186.116.339 1.166.339 2.335v2.126l1.856.007c1.02.004 3.437.031 5.371.059 1.933.028 3.999.024 4.59-.008l1.074-.058v-26.172h-25.391zm-29.465-1.802c-.117.191.011.533.286.762.376.312.514.225.558-.347.058-.78-.46-1.035-.844-.415" fill="#e5eeee"/>
    <path d="M191.406 73.423c-24.826 2.045-48.252 14.372-64.236 33.804-4.888 5.942-8.039 10.681-12.593 18.945-3.215 5.833-6.847 17.235-7.963 25-.556 3.871-.531 77.63.028 81.062 1.039 6.383 3.899 9.168 9.416 9.171l3.364.001.228 8.301c1.343 48.73 51.792 83.102 102.42 69.78 6.064-1.595 21.234-8.548 22.852-10.473.107-.128.986-.744 1.953-1.37 9.264-5.993 19.85-18.522 25.438-30.105 4.725-9.793 6.139-15.873 6.472-27.832l.231-8.301h3.675c5.127 0 6.722-1.01 8.631-5.469 1.579-3.687 1.647-5.502 1.639-43.586-.008-38.375-.102-40.917-1.767-47.527l-.664-2.636h-11.496l-.259 21.744a4318 4318 0 0 0-.259 42.578v20.834h-13.617l-.143 15.722-.143 15.723-1.461 4.883c-6.593 22.028-27.485 40.289-50.457 44.103-1.289.214-2.959.497-3.711.63-13.639 2.404-31.432-1.157-44.65-8.936-20.497-12.063-31.127-30.217-31.132-53.17-.001-3.013-.116-8.511-.257-12.217l-.255-6.738h-12.377l.007-37.403c.009-44.015-.04-43.436 4.599-54.003 14.534-33.107 50.605-54.136 84.065-49.009 7.845 1.202 17.773 3.947 21.912 6.058l1.526.779v19.515h32.422v28.516h13.659l.104-11.035c.128-13.564-.061-14.241-6.276-22.531-17.848-23.804-49.454-37.399-80.925-34.808m-92.578 36.733v6.25h13.281v-12.5H98.828zm187.891.196v6.445H300v-12.891h-13.281zM88.672 152.148v4.493h8.203v-8.985h-8.203zm213.281 0v4.493h8.203v-8.985h-8.203zm-168.75 25.782v6.836h10.793l.385 4.457c1.436 16.624 24.347 16.031 25.075-.649l.166-3.808h8.894v25.308c0 27.826-.015 27.629 2.409 32.178 8.222 15.425 25.664 16.693 35.107 2.552 3.182-4.764 3.109-3.97 3.109-33.712v-26.326h10.156v3.249c0 8.515 4.989 13.497 13.086 13.067 7.718-.41 11.902-4.804 11.91-12.508l.004-3.808h10.547v-13.688l-26.92.106-26.92.105-1.693 1.174c-1.097.761-2.064 1.905-2.745 3.247l-1.052 2.073.004 28.67c.004 32.049.132 30.531-2.753 32.441-3.579 2.368-7.669 1.087-9.911-3.103l-.862-1.611v-57.092l-1.178-1.906c-.857-1.387-1.746-2.202-3.267-2.997l-2.089-1.091h-52.255zm-44.531-1.758v4.687h8.203v-9.375h-8.203zm213.281 0v4.687h8.203v-9.375h-8.203zM83.594 199.805v5.664h11.328v-11.328H83.594zm220.312-.618c0 6.842-.508 6.282 5.706 6.282h5.232v-11.328h-10.938zM88.672 235.331v5.643l5.469.119 5.47.118-.001-5.762-.001-5.761H88.672zm210.156-2.773c0 1.579.11 4.172.244 5.762l.244 2.891 5.42-.118 5.42-.119v-11.286h-11.328zm-200 24.258v6.349l3.223.251c1.772.138 4.765.252 6.65.254l3.427.002-.107-6.543-.107-6.543-6.543-.06-6.543-.06zm194.434-6.133-6.543.117.001 6.338.001 6.339 6.64.041 6.639.041v-6.584c0-3.621-.044-6.545-.098-6.497-.053.048-3.042.14-6.64.205m-105.389 18.059c-16.373.187-17.878.26-18.88.917-3.128 2.051-2.946 8.941.3 11.373l1.215.91 29.168.142c32.637.159 29.957.372 32.136-2.547 1.247-1.67 1.167-6.959-.132-8.78-1.902-2.668 1.14-2.528-43.807-2.015" fill="#21354e"/>
    <path d="M243.652 113.564c.699.086 1.841.086 2.539 0 .699-.087.127-.158-1.269-.158-1.397 0-1.968.071-1.27.158M90.737 147.555c1.243.077 3.177.077 4.297-.002s.103-.142-2.261-.141c-2.363.001-3.279.065-2.036.143m213.085-.001c1.135.079 2.893.078 3.906-.002s.085-.145-2.064-.144-2.977.067-1.842.146m-10.732 15.141c.002 1.289.075 1.77.162 1.068.087-.703.085-1.757-.004-2.344s-.16-.013-.158 1.276m-28.327 15.047.115 7.001-5.193.127-5.193.128 5.274-.019 5.273-.018.107-6.807c.059-3.744-.029-6.943-.195-7.11s-.251 2.847-.188 6.698m28.376 3.899c0 5.693.055 8.022.122 5.175.066-2.846.066-7.504 0-10.351-.067-2.847-.122-.518-.122 5.176m-156.713 3.414c1.45.075 3.823.075 5.273 0s.264-.136-2.636-.136-4.087.061-2.637.136m85.156-.001c1.235.078 3.257.078 4.492 0 1.236-.077.225-.141-2.246-.141s-3.481.064-2.246.141m-2.29 5.376c.001 2.793.063 3.884.139 2.425.075-1.459.074-3.744-.002-5.078s-.137-.14-.137 2.653m-.045 7.226c0 .967.076 1.363.169.879a5.6 5.6 0 0 0 0-1.758c-.093-.483-.169-.088-.169.879m45.297 4.297c0 .752.08 1.06.178.684a3.2 3.2 0 0 0 0-1.367c-.098-.376-.178-.069-.178.683m-.091 18.099v7.292h-8.226c-5.385 0-8.143.135-7.985.39.133.215.07.391-.14.391-.209 0-.469-.22-.578-.488-.108-.269-.211 2.707-.228 6.613l-.03 7.101 8.546.04 8.547.04.29-14.093c.159-7.751.18-14.202.047-14.335-.134-.133-.243 3.039-.243 7.049m28.679.651c0 4.19.058 5.903.128 3.809.07-2.095.07-5.523 0-7.617s-.128-.381-.128 3.808m-44.944 2.344c0 2.041.066 2.876.146 1.855s.08-2.69 0-3.711-.146-.185-.146 1.856m-142.217 2.93c.003 1.074.079 1.467.169.873.089-.594.087-1.473-.006-1.953-.092-.48-.166.005-.163 1.08m113.323 6.445c0 2.9.061 4.087.136 2.637a62 62 0 0 0 0-5.274c-.075-1.45-.136-.264-.136 2.637m4.046 35.833c.913.082 2.407.082 3.32 0s.166-.15-1.66-.15-2.573.068-1.66.15m11.106 1.177c-2.333.094-3.201.265-3.077.604.096.259.334.44.53.402.513-.101.627 1.044.636 6.382.006 3.707.117 4.708.509 4.557.276-.106.805-.023 1.176.184.611.342.595.402-.168.644-.463.147-1.019.158-1.236.024s-.394-.058-.394.17c0 .249.968.404 2.441.389 1.732-.018 2.204-.121 1.625-.355-1.094-.442-.863-2.745.275-2.745.477 0 .737.276.737.781 0 .694.26.781 2.344.781h2.344v-3.906c0-3.646.052-3.906.781-3.906.648 0 .781-.261.781-1.529 0-1.487.044-1.536 1.66-1.845l1.66-.317-2.734-.255c-2.87-.267-4.55-.277-9.89-.06m6.667.382c-.698.086-1.841.086-2.539 0-.698-.087-.127-.158 1.27-.158 1.396 0 1.968.071 1.269.158m-.683 3.624c0 1.215-.125 1.381-1.122 1.495-1.446.165-1.771-.221-1.523-1.81.313-2.011 2.645-1.734 2.645.315m-3.418 8.485c.698.087 1.841.087 2.539 0 .698-.086.127-.157-1.27-.157-1.396 0-1.968.071-1.269.157m6.241 0c.693.086 1.924.087 2.734.003.811-.085.243-.155-1.26-.157s-2.167.067-1.474.154m-69.718.397c1.236.077 3.257.077 4.492 0 1.236-.078.225-.141-2.246-.141s-3.481.063-2.246.141" fill="#448297"/>
    <path d="M201.469 86.604c.486.094 1.189.09 1.563-.007.373-.098-.024-.175-.884-.17-.859.004-1.165.084-.679.177m-99.418 17.202a108 108 0 0 0 6.836 0c1.88-.071.342-.13-3.418-.13s-5.298.059-3.418.13m132.812 9.765a62 62 0 0 0 5.274 0c1.45-.075.263-.137-2.637-.137s-4.087.062-2.637.137m-2.343 11.624c.005.86.085 1.165.178.679.094-.486.09-1.189-.008-1.562-.098-.374-.174.024-.17.883m.59 2.034c.486.094 1.189.09 1.563-.007.373-.098-.025-.175-.884-.17s-1.165.084-.679.177m35.757 14.859c1.89.072 4.879.071 6.64-.001s.216-.131-3.437-.13c-3.652 0-5.094.059-3.203.131m15.801-.003c1.128.079 2.974.079 4.102 0 1.127-.079.205-.144-2.051-.144s-3.179.065-2.051.144m-20.331 6.938c.122 3.868.285 7.105.364 7.194.298.34.05-12.318-.26-13.248-.182-.546-.228 2.128-.104 6.054m-175.88 3.222.02 4.591 4.296.022 4.297.022-4.187-.133-4.187-.133-.129-4.479-.129-4.48zm159.32-.097c.002 1.29.075 1.77.162 1.068s.085-1.757-.004-2.344-.16-.013-.158 1.276m.137 4.319c.196.511 2.086.267 2.086-.269 0-.193-.508-.312-1.129-.265-.663.051-1.058.271-.957.534m55.895.462c1.128.079 2.973.079 4.101 0s.205-.144-2.051-.144c-2.255 0-3.178.065-2.05.144m-55.664 4.985c.005.859.085 1.165.178.679.094-.486.09-1.189-.008-1.562-.098-.374-.174.024-.17.883m44.962 6.25c-.001 1.934.065 2.774.147 1.867.082-.906.083-2.488.002-3.515-.08-1.027-.147-.286-.149 1.648m-45.36-1.367c0 .752.08 1.059.179.683a3.2 3.2 0 0 0 0-1.367c-.099-.376-.179-.068-.179.684m-.228 3.998c-.247.158 3.506.255 8.34.215 8.86-.072 8.045-.215-2.285-.401-3.084-.056-5.808.028-6.055.186m17.595.55c.479 1.244.296 13.42-.205 13.612-.286.11-2.703.199-5.371.199h-4.85v3.333c0 2.027-.222 3.864-.567 4.688-.311.745-.48 1.354-.375 1.354s.011.22-.209.489c-1.874 2.286-2.305 2.956-2.061 3.201.155.155.106.228-.109.162-.398-.122-2.54 1.131-2.973 1.739-.132.184-.351.32-.488.302-.772-.103-1.555.053-1.129.225.378.153.489 3.215.489 13.456v13.258l-13.965-.107-13.965-.108.119 4.931c.217 9.01-4.311 17.06-11.739 20.871l-2.245 1.152-.001 7.19-.001 7.19 11.247-.23c10.72-.219 11.33-.193 12.989.559 1.545.701 2.616.795 9.553.841 5.812.038 7.387.143 6.152.411-1.604.348-1.66.412-1.66 1.868 0 1.246-.135 1.507-.781 1.507-.729 0-.781.26-.781 3.906v3.906h-2.344c-2.084 0-2.344-.087-2.344-.781 0-1.334-1.443-.99-1.646.393-.238 1.619-.441 1.568 5.91 1.491 4.603-.056 5.172-.118 2.963-.322l-2.735-.252 2.555-.069c2.365-.064 2.555-.134 2.561-.948.004-.484.041-12.7.083-27.149l.075-26.269h17.066l.201-11.817c.111-6.499.177-12.827.147-14.062l-.054-2.246h13.907l-.027-14.045-.027-14.046-6.769-.115c-4.955-.084-6.722.005-6.596.332M88.43 175.977c.001 2.578.064 3.582.141 2.23s.076-3.46-.002-4.687c-.077-1.227-.139-.122-.139 2.457m213.283.195c0 2.685.062 3.784.139 2.441.076-1.342.076-3.54 0-4.883-.077-1.342-.139-.244-.139 2.442m-123.457 11.719c0 1.611.069 2.27.154 1.464.084-.805.084-2.124 0-2.929-.085-.806-.154-.147-.154 1.465m50.775-.391c0 1.396.071 1.968.158 1.27.086-.699.086-1.841 0-2.54-.087-.698-.158-.126-.158 1.27m-9.714 25.391c0 7.627.052 10.747.116 6.933s.064-10.053 0-13.867-.116-.693-.116 6.934m-41.015 5.078c0 8.271.052 11.655.115 7.519.064-4.135.064-10.903 0-15.039-.063-4.136-.115-.752-.115 7.52m70.032 6.933c-.08 1.021-.146.186-.146-1.855s.066-2.876.146-1.856a29 29 0 0 1 0 3.711m-124.994 2.342a96 96 0 0 0 6.445 0c1.773-.073.322-.132-3.222-.132s-4.996.059-3.223.132m-34.905 8.498c.001 3.008.062 4.187.137 2.62.074-1.567.073-4.028-.001-5.469-.075-1.441-.136-.159-.136 2.849m109.71 19.225c.59.09 1.557.09 2.148 0 .591-.089.107-.162-1.074-.162s-1.665.073-1.074.162m42.968 14.456c-.698.087-1.841.087-2.539 0-.698-.086-.127-.157 1.27-.157 1.396 0 1.968.071 1.269.157m-3.328 3.7c-.248 1.589.077 1.975 1.523 1.81 1.776-.203 1.689-2.808-.1-2.982-1.114-.108-1.24-.004-1.423 1.172m-71.28 2.072c.004.86.084 1.165.178.679s.089-1.189-.008-1.562c-.098-.374-.175.024-.17.883m66.129 6.419c-.34.549.469.892 1.405.595.652-.207.714-.336.29-.605-.707-.448-1.415-.444-1.695.01m6.917.309c-.698.087-1.841.087-2.539 0-.699-.086-.127-.157 1.269-.157 1.397 0 1.968.071 1.27.157m-44.336.399a96 96 0 0 0 6.445 0c1.773-.073.322-.132-3.222-.132s-4.996.059-3.223.132" fill="#5a93ac"/>
    <path d="M192.876 73.323c.486.094 1.189.09 1.562-.008.374-.098-.024-.174-.883-.17-.86.005-1.165.085-.679.178m-59.893 27.165-1.147 1.27 1.269-1.147c.699-.632 1.27-1.203 1.27-1.27 0-.302-.322-.036-1.392 1.147m-30.932 16.209a108 108 0 0 0 6.836 0c1.88-.072.342-.13-3.418-.13s-5.298.058-3.418.13m176.637 14.162c0 6.123.054 8.628.12 5.567s.066-8.072 0-11.133-.12-.557-.12 5.566m.005 25.782c0 8.056.052 11.352.115 7.324a559 559 0 0 0 0-14.649c-.063-4.028-.115-.732-.115 7.325m23.019-4.493c0 2.579.064 3.582.14 2.231s.076-3.46-.001-4.687c-.078-1.227-.14-.122-.139 2.456m-195.667 43.946c0 15.576.048 21.948.107 14.16s.059-20.532 0-28.32-.107-1.416-.107 14.16m26.929-18.164c0 3.867.059 5.396.13 3.398s.071-5.162-.001-7.031c-.071-1.869-.13-.234-.129 3.633m72.606 6.64c.003 1.075.079 1.468.169.874s.087-1.473-.005-1.953c-.093-.481-.166.005-.164 1.079m48.856 3.516c-.002 1.934.064 2.774.146 1.867.082-.906.083-2.488.002-3.515-.08-1.027-.147-.286-.148 1.648m-110.205 2.148c0 .752.081 1.06.179.684a3.2 3.2 0 0 0 0-1.367c-.098-.376-.179-.069-.179.683m148.909 12.305c.001 6.016.055 8.422.121 5.348a302 302 0 0 0 0-10.938c-.067-2.941-.121-.426-.121 5.59m-101.166 7.617c0 8.272.052 11.656.115 7.52.064-4.136.064-10.904 0-15.039-.063-4.136-.115-.752-.115 7.519m72.87-.454c0 5.766-.117 15.264-.259 21.107l-.258 10.624-8.433-.043-8.433-.043-.101 20.538-.101 20.537h-3.843c-2.114 0-5.452.114-7.418.254l-3.576.253v-4.05l-1.208 1.376c-1.831 2.085-2.828 2.225-14.915 2.091l-10.85-.119.03 12.993c.016 7.146-.076 13.165-.206 13.374-.129.21-.007.307.273.216s1.475-.268 2.657-.393c25.285-2.688 47.865-21.075 54.949-44.745l1.461-4.883.143-15.723.143-15.722h13.617v-28.125h-13.672zm-131.882 22.134c0 2.578.064 3.582.14 2.231s.076-3.461-.001-4.688c-.078-1.227-.14-.121-.139 2.457m72.613.586c0 .967.076 1.362.169.879a5.5 5.5 0 0 0 0-1.758c-.093-.483-.169-.088-.169.879m93.36 6.641c0 .966.076 1.362.169.878a5.6 5.6 0 0 0 0-1.757c-.093-.484-.169-.088-.169.879m-207.839 2.242c1.441.075 3.902.075 5.469.001s.388-.136-2.62-.136c-3.007-.001-4.29.06-2.849.135m210.938 0c1.44.075 3.901.075 5.468.001s.389-.136-2.619-.136c-3.008-.001-4.29.06-2.849.135m-199.202 9.355c.376.098.991.098 1.367 0s.069-.179-.683-.179-1.06.081-.684.179m187.129.022c1.89.072 4.878.071 6.64-.001s.215-.131-3.437-.131c-3.652.001-5.094.06-3.203.132M99.909 263.564c.702.087 1.757.085 2.344-.004s.013-.16-1.276-.158-1.77.075-1.068.162m189.85.006c1.135.079 2.893.078 3.906-.002s.085-.145-2.063-.144-2.978.067-1.843.146m-110.169 5.082c4.78.062 12.602.062 17.383 0s.869-.113-8.692-.113-13.471.051-8.691.113m24.805 53.883c.376.098.991.098 1.367 0s.068-.179-.684-.179-1.059.081-.683.179" fill="#28637d"/>
  </g>
</svg>
